<?xml version="1.0" encoding="UTF-8" standalone="no"?>
<!DOCTYPE svg PUBLIC "-//W3C//DTD SVG 1.1//EN"
 "http://www.w3.org/Graphics/SVG/1.1/DTD/svg11.dtd">
<!-- Generated by graphviz version 9.0.0 (20230911.1827)
 -->
<!-- Pages: 1 -->
<svg width="776pt" height="1258pt"
 viewBox="0.00 0.00 776.00 1258.00" xmlns="http://www.w3.org/2000/svg" xmlns:xlink="http://www.w3.org/1999/xlink">
<g id="graph0" class="graph" transform="scale(1 1) rotate(0) translate(4 1254)">
<polygon fill="white" stroke="none" points="-4,4 -4,-1254 772,-1254 772,4 -4,4"/>
<!-- HW.PDM.1A -->
<g id="node1" class="node">
<title>HW.PDM.1A</title>
<polygon fill="none" stroke="black" points="10.5,-580 10.5,-594 63.5,-594 63.5,-580 10.5,-580"/>
<text text-anchor="start" x="13.38" y="-583.4" font-family="Lucida Console" font-size="8.00">HW.PDM.1A</text>
<polygon fill="none" stroke="black" points="10.5,-566 10.5,-580 42.5,-580 42.5,-566 10.5,-566"/>
<text text-anchor="start" x="13.38" y="-569.4" font-family="Lucida Console" font-size="8.00">IN.12</text>
<polygon fill="none" stroke="black" points="42.5,-566 42.5,-580 63.5,-580 63.5,-566 42.5,-566"/>
<text text-anchor="start" x="47.75" y="-569.4" font-family="Lucida Console" font-size="8.00">A1</text>
<polygon fill="none" stroke="black" points="10.5,-552 10.5,-566 42.5,-566 42.5,-552 10.5,-552"/>
<text text-anchor="start" x="13.38" y="-555.4" font-family="Lucida Console" font-size="8.00">IN.10</text>
<polygon fill="none" stroke="black" points="42.5,-552 42.5,-566 63.5,-566 63.5,-552 42.5,-552"/>
<text text-anchor="start" x="47.75" y="-555.4" font-family="Lucida Console" font-size="8.00">A2</text>
<polygon fill="none" stroke="black" points="10.5,-538 10.5,-552 42.5,-552 42.5,-538 10.5,-538"/>
<text text-anchor="start" x="16" y="-541.4" font-family="Lucida Console" font-size="8.00">IN.8</text>
<polygon fill="none" stroke="black" points="42.5,-538 42.5,-552 63.5,-552 63.5,-538 42.5,-538"/>
<text text-anchor="start" x="47.75" y="-541.4" font-family="Lucida Console" font-size="8.00">A3</text>
<polygon fill="none" stroke="black" points="10.5,-524 10.5,-538 42.5,-538 42.5,-524 10.5,-524"/>
<text text-anchor="start" x="16" y="-527.4" font-family="Lucida Console" font-size="8.00">IN.6</text>
<polygon fill="none" stroke="black" points="42.5,-524 42.5,-538 63.5,-538 63.5,-524 42.5,-524"/>
<text text-anchor="start" x="47.75" y="-527.4" font-family="Lucida Console" font-size="8.00">A4</text>
<polygon fill="none" stroke="black" points="10.5,-510 10.5,-524 42.5,-524 42.5,-510 10.5,-510"/>
<text text-anchor="start" x="16" y="-513.4" font-family="Lucida Console" font-size="8.00">IN.4</text>
<polygon fill="none" stroke="black" points="42.5,-510 42.5,-524 63.5,-524 63.5,-510 42.5,-510"/>
<text text-anchor="start" x="47.75" y="-513.4" font-family="Lucida Console" font-size="8.00">A5</text>
<polygon fill="none" stroke="black" points="10.5,-496 10.5,-510 42.5,-510 42.5,-496 10.5,-496"/>
<text text-anchor="start" x="16" y="-499.4" font-family="Lucida Console" font-size="8.00">IN.2</text>
<polygon fill="none" stroke="black" points="42.5,-496 42.5,-510 63.5,-510 63.5,-496 42.5,-496"/>
<text text-anchor="start" x="47.75" y="-499.4" font-family="Lucida Console" font-size="8.00">A6</text>
<polygon fill="none" stroke="black" points="10.5,-482 10.5,-496 42.5,-496 42.5,-482 10.5,-482"/>
<text text-anchor="start" x="16" y="-485.4" font-family="Lucida Console" font-size="8.00">IN.1</text>
<polygon fill="none" stroke="black" points="42.5,-482 42.5,-496 63.5,-496 63.5,-482 42.5,-482"/>
<text text-anchor="start" x="47.75" y="-485.4" font-family="Lucida Console" font-size="8.00">A7</text>
<polygon fill="none" stroke="black" points="10.5,-468 10.5,-482 42.5,-482 42.5,-468 10.5,-468"/>
<text text-anchor="start" x="16" y="-471.4" font-family="Lucida Console" font-size="8.00">IN.3</text>
<polygon fill="none" stroke="black" points="42.5,-468 42.5,-482 63.5,-482 63.5,-468 42.5,-468"/>
<text text-anchor="start" x="47.75" y="-471.4" font-family="Lucida Console" font-size="8.00">A8</text>
<polygon fill="none" stroke="black" points="10.5,-454 10.5,-468 42.5,-468 42.5,-454 10.5,-454"/>
<text text-anchor="start" x="16" y="-457.4" font-family="Lucida Console" font-size="8.00">IN.5</text>
<polygon fill="none" stroke="black" points="42.5,-454 42.5,-468 63.5,-468 63.5,-454 42.5,-454"/>
<text text-anchor="start" x="47.75" y="-457.4" font-family="Lucida Console" font-size="8.00">A9</text>
<polygon fill="none" stroke="black" points="10.5,-440 10.5,-454 42.5,-454 42.5,-440 10.5,-440"/>
<text text-anchor="start" x="16" y="-443.4" font-family="Lucida Console" font-size="8.00">IN.7</text>
<polygon fill="none" stroke="black" points="42.5,-440 42.5,-454 63.5,-454 63.5,-440 42.5,-440"/>
<text text-anchor="start" x="45.12" y="-443.4" font-family="Lucida Console" font-size="8.00">A10</text>
<polygon fill="none" stroke="black" points="10.5,-426 10.5,-440 42.5,-440 42.5,-426 10.5,-426"/>
<text text-anchor="start" x="16" y="-429.4" font-family="Lucida Console" font-size="8.00">IN.9</text>
<polygon fill="none" stroke="black" points="42.5,-426 42.5,-440 63.5,-440 63.5,-426 42.5,-426"/>
<text text-anchor="start" x="45.12" y="-429.4" font-family="Lucida Console" font-size="8.00">A11</text>
<polygon fill="none" stroke="black" points="10.5,-412 10.5,-426 42.5,-426 42.5,-412 10.5,-412"/>
<text text-anchor="start" x="13.38" y="-415.4" font-family="Lucida Console" font-size="8.00">IN.11</text>
<polygon fill="none" stroke="black" points="42.5,-412 42.5,-426 63.5,-426 63.5,-412 42.5,-412"/>
<text text-anchor="start" x="45.12" y="-415.4" font-family="Lucida Console" font-size="8.00">A12</text>
</g>
<!-- REAR.1 -->
<g id="node12" class="node">
<title>REAR.1</title>
<text text-anchor="start" x="373.25" y="-378.4" font-family="Lucida Console" font-size="8.00">REAR.1</text>
<polygon fill="none" stroke="grey" points="370.5,-315 370.5,-389 407.5,-389 407.5,-315 370.5,-315"/>
</g>
<!-- HW.PDM.1A&#45;&#45;REAR.1 -->
<g id="edge1" class="edge">
<title>HW.PDM.1A:A1R&#45;&#45;REAR.1:0L</title>
<path fill="none" stroke="#000000" d="M65,-571C224.87,-573.19 206.15,-374.19 370,-372"/>
<path fill="none" stroke="#0066ff" d="M65,-573C226.86,-573 208.14,-374 370,-374"/>
<path fill="none" stroke="#000000" d="M65,-575C228.85,-572.81 210.13,-373.81 370,-376"/>
</g>
<!-- HW.PDM.1A&#45;&#45;REAR.1 -->
<g id="edge2" class="edge">
<title>HW.PDM.1A:A2R&#45;&#45;REAR.1:1L</title>
<path fill="none" stroke="#000000" d="M65,-557C222.48,-559.15 208.53,-370.15 370,-368"/>
<path fill="none" stroke="#0066ff" d="M65,-559C224.47,-559 210.53,-370 370,-370"/>
<path fill="none" stroke="#000000" d="M65,-561C226.47,-558.85 212.52,-369.85 370,-372"/>
</g>
<!-- HW.PDM.1A&#45;&#45;REAR.1 -->
<g id="edge3" class="edge">
<title>HW.PDM.1A:A3R&#45;&#45;REAR.1:2L</title>
<path fill="none" stroke="#000000" d="M65,-543C220.18,-545.1 210.83,-366.1 370,-364"/>
<path fill="none" stroke="#0066ff" d="M65,-545C222.18,-545 212.82,-366 370,-366"/>
<path fill="none" stroke="#000000" d="M65,-547C224.17,-544.9 214.82,-365.9 370,-368"/>
</g>
<!-- HW.PDM.1A&#45;&#45;REAR.1 -->
<g id="edge4" class="edge">
<title>HW.PDM.1A:A4R&#45;&#45;REAR.1:3L</title>
<path fill="none" stroke="#000000" d="M65,-529C217.98,-531.06 213.03,-362.06 370,-360"/>
<path fill="none" stroke="#0066ff" d="M65,-531C219.97,-531 215.03,-362 370,-362"/>
<path fill="none" stroke="#000000" d="M65,-533C221.97,-530.94 217.02,-361.94 370,-364"/>
</g>
<!-- HW.PDM.1B -->
<g id="node2" class="node">
<title>HW.PDM.1B</title>
<polygon fill="none" stroke="black" points="8,-376 8,-390 66,-390 66,-376 8,-376"/>
<text text-anchor="start" x="13.38" y="-379.4" font-family="Lucida Console" font-size="8.00">HW.PDM.1B</text>
<polygon fill="none" stroke="black" points="8,-362 8,-376 45,-376 45,-362 8,-362"/>
<text text-anchor="start" x="21.25" y="-365.4" font-family="Lucida Console" font-size="8.00">NC</text>
<polygon fill="none" stroke="black" points="45,-362 45,-376 66,-376 66,-362 45,-362"/>
<text text-anchor="start" x="50.25" y="-365.4" font-family="Lucida Console" font-size="8.00">B1</text>
<polygon fill="none" stroke="black" points="8,-348 8,-362 45,-362 45,-348 8,-348"/>
<text text-anchor="start" x="21.25" y="-351.4" font-family="Lucida Console" font-size="8.00">NC</text>
<polygon fill="none" stroke="black" points="45,-348 45,-362 66,-362 66,-348 45,-348"/>
<text text-anchor="start" x="50.25" y="-351.4" font-family="Lucida Console" font-size="8.00">B2</text>
<polygon fill="none" stroke="black" points="8,-334 8,-348 45,-348 45,-334 8,-334"/>
<text text-anchor="start" x="21.25" y="-337.4" font-family="Lucida Console" font-size="8.00">NC</text>
<polygon fill="none" stroke="black" points="45,-334 45,-348 66,-348 66,-334 45,-334"/>
<text text-anchor="start" x="50.25" y="-337.4" font-family="Lucida Console" font-size="8.00">B3</text>
<polygon fill="none" stroke="black" points="8,-320 8,-334 45,-334 45,-320 8,-320"/>
<text text-anchor="start" x="10.75" y="-323.4" font-family="Lucida Console" font-size="8.00">OUT.15</text>
<polygon fill="none" stroke="black" points="45,-320 45,-334 66,-334 66,-320 45,-320"/>
<text text-anchor="start" x="50.25" y="-323.4" font-family="Lucida Console" font-size="8.00">B4</text>
<polygon fill="none" stroke="black" points="8,-306 8,-320 45,-320 45,-306 8,-306"/>
<text text-anchor="start" x="10.75" y="-309.4" font-family="Lucida Console" font-size="8.00">OUT.14</text>
<polygon fill="none" stroke="black" points="45,-306 45,-320 66,-320 66,-306 45,-306"/>
<text text-anchor="start" x="50.25" y="-309.4" font-family="Lucida Console" font-size="8.00">B5</text>
<polygon fill="none" stroke="black" points="8,-292 8,-306 45,-306 45,-292 8,-292"/>
<text text-anchor="start" x="10.75" y="-295.4" font-family="Lucida Console" font-size="8.00">OUT.13</text>
<polygon fill="none" stroke="black" points="45,-292 45,-306 66,-306 66,-292 45,-292"/>
<text text-anchor="start" x="50.25" y="-295.4" font-family="Lucida Console" font-size="8.00">B6</text>
<polygon fill="none" stroke="black" points="8,-278 8,-292 45,-292 45,-278 8,-278"/>
<text text-anchor="start" x="10.75" y="-281.4" font-family="Lucida Console" font-size="8.00">OUT.10</text>
<polygon fill="none" stroke="black" points="45,-278 45,-292 66,-292 66,-278 45,-278"/>
<text text-anchor="start" x="50.25" y="-281.4" font-family="Lucida Console" font-size="8.00">B7</text>
<polygon fill="none" stroke="black" points="8,-264 8,-278 45,-278 45,-264 8,-264"/>
<text text-anchor="start" x="10.75" y="-267.4" font-family="Lucida Console" font-size="8.00">OUT.11</text>
<polygon fill="none" stroke="black" points="45,-264 45,-278 66,-278 66,-264 45,-264"/>
<text text-anchor="start" x="50.25" y="-267.4" font-family="Lucida Console" font-size="8.00">B8</text>
<polygon fill="none" stroke="black" points="8,-250 8,-264 45,-264 45,-250 8,-250"/>
<text text-anchor="start" x="10.75" y="-253.4" font-family="Lucida Console" font-size="8.00">OUT.12</text>
<polygon fill="none" stroke="black" points="45,-250 45,-264 66,-264 66,-250 45,-250"/>
<text text-anchor="start" x="50.25" y="-253.4" font-family="Lucida Console" font-size="8.00">B9</text>
<polygon fill="none" stroke="black" points="8,-236 8,-250 45,-250 45,-236 8,-236"/>
<text text-anchor="start" x="21.25" y="-239.4" font-family="Lucida Console" font-size="8.00">NC</text>
<polygon fill="none" stroke="black" points="45,-236 45,-250 66,-250 66,-236 45,-236"/>
<text text-anchor="start" x="47.62" y="-239.4" font-family="Lucida Console" font-size="8.00">B10</text>
<polygon fill="none" stroke="black" points="8,-222 8,-236 45,-236 45,-222 8,-222"/>
<text text-anchor="start" x="21.25" y="-225.4" font-family="Lucida Console" font-size="8.00">NC</text>
<polygon fill="none" stroke="black" points="45,-222 45,-236 66,-236 66,-222 45,-222"/>
<text text-anchor="start" x="47.62" y="-225.4" font-family="Lucida Console" font-size="8.00">B11</text>
<polygon fill="none" stroke="black" points="8,-208 8,-222 45,-222 45,-208 8,-208"/>
<text text-anchor="start" x="21.25" y="-211.4" font-family="Lucida Console" font-size="8.00">NC</text>
<polygon fill="none" stroke="black" points="45,-208 45,-222 66,-222 66,-208 45,-208"/>
<text text-anchor="start" x="47.62" y="-211.4" font-family="Lucida Console" font-size="8.00">B12</text>
</g>
<!-- HW.PDM.1B&#45;&#45;REAR.1 -->
<g id="edge5" class="edge">
<title>HW.PDM.1B:B1R&#45;&#45;REAR.1:5L</title>
<path fill="none" stroke="#000000" d="M67,-367C201.01,-367.18 234.35,-352.18 370,-352"/>
<path fill="none" stroke="#0066ff" d="M67,-369C201.83,-369 235.17,-354 370,-354"/>
<path fill="none" stroke="#000000" d="M67,-371C202.65,-370.82 235.99,-355.82 370,-356"/>
</g>
<!-- HW.PDM.1B&#45;&#45;REAR.1 -->
<g id="edge6" class="edge">
<title>HW.PDM.1B:B2R&#45;&#45;REAR.1:6L</title>
<path fill="none" stroke="#000000" d="M67,-353C201.39,-353.02 235.02,-348.02 370,-348"/>
<path fill="none" stroke="#0066ff" d="M67,-355C201.69,-355 235.31,-350 370,-350"/>
<path fill="none" stroke="#000000" d="M67,-357C201.98,-356.98 235.61,-351.98 370,-352"/>
</g>
<!-- HW.PDM.1B&#45;&#45;REAR.1 -->
<g id="edge7" class="edge">
<title>HW.PDM.1B:B3R&#45;&#45;REAR.1:7L</title>
<path fill="none" stroke="#000000" d="M67,-339C201.98,-339.02 235.61,-344.02 370,-344"/>
<path fill="none" stroke="#0066ff" d="M67,-341C201.69,-341 235.31,-346 370,-346"/>
<path fill="none" stroke="#000000" d="M67,-343C201.39,-342.98 235.02,-347.98 370,-348"/>
</g>
<!-- HW.PDM.1B&#45;&#45;REAR.1 -->
<g id="edge8" class="edge">
<title>HW.PDM.1B:B4R&#45;&#45;REAR.1:8L</title>
<path fill="none" stroke="#000000" d="M67,-325C202.65,-325.18 235.99,-340.18 370,-340"/>
<path fill="none" stroke="#0066ff" d="M67,-327C201.83,-327 235.17,-342 370,-342"/>
<path fill="none" stroke="#000000" d="M67,-329C201.01,-328.82 234.35,-343.82 370,-344"/>
</g>
<!-- HW.PDM.1C -->
<g id="node3" class="node">
<title>HW.PDM.1C</title>
<polygon fill="none" stroke="black" points="8,-172 8,-186 66,-186 66,-172 8,-172"/>
<text text-anchor="start" x="13.38" y="-175.4" font-family="Lucida Console" font-size="8.00">HW.PDM.1C</text>
<polygon fill="none" stroke="black" points="8,-158 8,-172 45,-172 45,-158 8,-158"/>
<text text-anchor="start" x="13.38" y="-161.4" font-family="Lucida Console" font-size="8.00">IN.16</text>
<polygon fill="none" stroke="black" points="45,-158 45,-172 66,-172 66,-158 45,-158"/>
<text text-anchor="start" x="50.25" y="-161.4" font-family="Lucida Console" font-size="8.00">C1</text>
<polygon fill="none" stroke="black" points="8,-144 8,-158 45,-158 45,-144 8,-144"/>
<text text-anchor="start" x="13.38" y="-147.4" font-family="Lucida Console" font-size="8.00">IN.15</text>
<polygon fill="none" stroke="black" points="45,-144 45,-158 66,-158 66,-144 45,-144"/>
<text text-anchor="start" x="50.25" y="-147.4" font-family="Lucida Console" font-size="8.00">C2</text>
<polygon fill="none" stroke="black" points="8,-130 8,-144 45,-144 45,-130 8,-130"/>
<text text-anchor="start" x="10.75" y="-133.4" font-family="Lucida Console" font-size="8.00">IGN12V</text>
<polygon fill="none" stroke="black" points="45,-130 45,-144 66,-144 66,-130 45,-130"/>
<text text-anchor="start" x="50.25" y="-133.4" font-family="Lucida Console" font-size="8.00">C3</text>
<polygon fill="none" stroke="black" points="8,-116 8,-130 45,-130 45,-116 8,-116"/>
<text text-anchor="start" x="13.38" y="-119.4" font-family="Lucida Console" font-size="8.00">OUT.3</text>
<polygon fill="none" stroke="black" points="45,-116 45,-130 66,-130 66,-116 45,-116"/>
<text text-anchor="start" x="50.25" y="-119.4" font-family="Lucida Console" font-size="8.00">C4</text>
<polygon fill="none" stroke="black" points="8,-102 8,-116 45,-116 45,-102 8,-102"/>
<text text-anchor="start" x="13.38" y="-105.4" font-family="Lucida Console" font-size="8.00">OUT.2</text>
<polygon fill="none" stroke="black" points="45,-102 45,-116 66,-116 66,-102 45,-102"/>
<text text-anchor="start" x="50.25" y="-105.4" font-family="Lucida Console" font-size="8.00">C5</text>
<polygon fill="none" stroke="black" points="8,-88 8,-102 45,-102 45,-88 8,-88"/>
<text text-anchor="start" x="13.38" y="-91.4" font-family="Lucida Console" font-size="8.00">OUT.1</text>
<polygon fill="none" stroke="black" points="45,-88 45,-102 66,-102 66,-88 45,-88"/>
<text text-anchor="start" x="50.25" y="-91.4" font-family="Lucida Console" font-size="8.00">C6</text>
<polygon fill="none" stroke="black" points="8,-74 8,-88 45,-88 45,-74 8,-74"/>
<text text-anchor="start" x="18.62" y="-77.4" font-family="Lucida Console" font-size="8.00">GND</text>
<polygon fill="none" stroke="black" points="45,-74 45,-88 66,-88 66,-74 45,-74"/>
<text text-anchor="start" x="50.25" y="-77.4" font-family="Lucida Console" font-size="8.00">C7</text>
<polygon fill="none" stroke="black" points="8,-60 8,-74 45,-74 45,-60 8,-60"/>
<text text-anchor="start" x="13.38" y="-63.4" font-family="Lucida Console" font-size="8.00">CAN.H</text>
<polygon fill="none" stroke="black" points="45,-60 45,-74 66,-74 66,-60 45,-60"/>
<text text-anchor="start" x="50.25" y="-63.4" font-family="Lucida Console" font-size="8.00">C8</text>
<polygon fill="none" stroke="black" points="8,-46 8,-60 45,-60 45,-46 8,-46"/>
<text text-anchor="start" x="13.38" y="-49.4" font-family="Lucida Console" font-size="8.00">CAN.L</text>
<polygon fill="none" stroke="black" points="45,-46 45,-60 66,-60 66,-46 45,-46"/>
<text text-anchor="start" x="50.25" y="-49.4" font-family="Lucida Console" font-size="8.00">C9</text>
<polygon fill="none" stroke="black" points="8,-32 8,-46 45,-46 45,-32 8,-32"/>
<text text-anchor="start" x="21.25" y="-35.4" font-family="Lucida Console" font-size="8.00">5V</text>
<polygon fill="none" stroke="black" points="45,-32 45,-46 66,-46 66,-32 45,-32"/>
<text text-anchor="start" x="47.62" y="-35.4" font-family="Lucida Console" font-size="8.00">C10</text>
<polygon fill="none" stroke="black" points="8,-18 8,-32 45,-32 45,-18 8,-18"/>
<text text-anchor="start" x="13.38" y="-21.4" font-family="Lucida Console" font-size="8.00">IN.13</text>
<polygon fill="none" stroke="black" points="45,-18 45,-32 66,-32 66,-18 45,-18"/>
<text text-anchor="start" x="47.62" y="-21.4" font-family="Lucida Console" font-size="8.00">C11</text>
<polygon fill="none" stroke="black" points="8,-4 8,-18 45,-18 45,-4 8,-4"/>
<text text-anchor="start" x="13.38" y="-7.4" font-family="Lucida Console" font-size="8.00">IN.14</text>
<polygon fill="none" stroke="black" points="45,-4 45,-18 66,-18 66,-4 45,-4"/>
<text text-anchor="start" x="47.62" y="-7.4" font-family="Lucida Console" font-size="8.00">C12</text>
</g>
<!-- HW.PDM.1C&#45;&#45;REAR.1 -->
<g id="edge9" class="edge">
<title>HW.PDM.1C:C1R&#45;&#45;REAR.1:10L</title>
<path fill="none" stroke="#000000" d="M67,-163C223.2,-165.06 217.8,-334.06 370,-332"/>
<path fill="none" stroke="#0066ff" d="M67,-165C221.2,-165 215.8,-334 370,-334"/>
<path fill="none" stroke="#000000" d="M67,-167C219.2,-164.94 213.8,-333.94 370,-336"/>
</g>
<!-- HW.PDM.1C&#45;&#45;REAR.1 -->
<g id="edge10" class="edge">
<title>HW.PDM.1C:C2R&#45;&#45;REAR.1:11L</title>
<path fill="none" stroke="#000000" d="M67,-149C225.41,-151.11 215.59,-330.11 370,-328"/>
<path fill="none" stroke="#0066ff" d="M67,-151C223.41,-151 213.59,-330 370,-330"/>
<path fill="none" stroke="#000000" d="M67,-153C221.41,-150.89 211.59,-329.89 370,-332"/>
</g>
<!-- HW.PDM.1C&#45;&#45;REAR.1 -->
<g id="edge11" class="edge">
<title>HW.PDM.1C:C3R&#45;&#45;REAR.1:12L</title>
<path fill="none" stroke="#000000" d="M67,-135C227.71,-137.15 213.28,-326.15 370,-324"/>
<path fill="none" stroke="#0066ff" d="M67,-137C225.72,-137 211.28,-326 370,-326"/>
<path fill="none" stroke="#000000" d="M67,-139C223.72,-136.85 209.29,-325.85 370,-328"/>
</g>
<!-- HW.PDM.1C&#45;&#45;REAR.1 -->
<g id="edge12" class="edge">
<title>HW.PDM.1C:C4R&#45;&#45;REAR.1:13L</title>
<path fill="none" stroke="#000000" d="M67,-121C230.1,-123.19 210.88,-322.19 370,-320"/>
<path fill="none" stroke="#0066ff" d="M67,-123C228.11,-123 208.89,-322 370,-322"/>
<path fill="none" stroke="#000000" d="M67,-125C226.12,-122.81 206.9,-321.81 370,-324"/>
</g>
<!-- HW.PDM.1D -->
<g id="node4" class="node">
<title>HW.PDM.1D</title>
<polygon fill="none" stroke="black" points="10.5,-784 10.5,-798 63.5,-798 63.5,-784 10.5,-784"/>
<text text-anchor="start" x="13.38" y="-787.4" font-family="Lucida Console" font-size="8.00">HW.PDM.1D</text>
<polygon fill="none" stroke="black" points="10.5,-770 10.5,-784 42.5,-784 42.5,-770 10.5,-770"/>
<text text-anchor="start" x="21.25" y="-773.4" font-family="Lucida Console" font-size="8.00">NC</text>
<polygon fill="none" stroke="black" points="42.5,-770 42.5,-784 63.5,-784 63.5,-770 42.5,-770"/>
<text text-anchor="start" x="47.75" y="-773.4" font-family="Lucida Console" font-size="8.00">D1</text>
<polygon fill="none" stroke="black" points="10.5,-756 10.5,-770 42.5,-770 42.5,-756 10.5,-756"/>
<text text-anchor="start" x="21.25" y="-759.4" font-family="Lucida Console" font-size="8.00">NC</text>
<polygon fill="none" stroke="black" points="42.5,-756 42.5,-770 63.5,-770 63.5,-756 42.5,-756"/>
<text text-anchor="start" x="47.75" y="-759.4" font-family="Lucida Console" font-size="8.00">D2</text>
<polygon fill="none" stroke="black" points="10.5,-742 10.5,-756 42.5,-756 42.5,-742 10.5,-742"/>
<text text-anchor="start" x="21.25" y="-745.4" font-family="Lucida Console" font-size="8.00">NC</text>
<polygon fill="none" stroke="black" points="42.5,-742 42.5,-756 63.5,-756 63.5,-742 42.5,-742"/>
<text text-anchor="start" x="47.75" y="-745.4" font-family="Lucida Console" font-size="8.00">D3</text>
<polygon fill="none" stroke="black" points="10.5,-728 10.5,-742 42.5,-742 42.5,-728 10.5,-728"/>
<text text-anchor="start" x="13.38" y="-731.4" font-family="Lucida Console" font-size="8.00">OUT.9</text>
<polygon fill="none" stroke="black" points="42.5,-728 42.5,-742 63.5,-742 63.5,-728 42.5,-728"/>
<text text-anchor="start" x="47.75" y="-731.4" font-family="Lucida Console" font-size="8.00">D4</text>
<polygon fill="none" stroke="black" points="10.5,-714 10.5,-728 42.5,-728 42.5,-714 10.5,-714"/>
<text text-anchor="start" x="13.38" y="-717.4" font-family="Lucida Console" font-size="8.00">OUT.8</text>
<polygon fill="none" stroke="black" points="42.5,-714 42.5,-728 63.5,-728 63.5,-714 42.5,-714"/>
<text text-anchor="start" x="47.75" y="-717.4" font-family="Lucida Console" font-size="8.00">D5</text>
<polygon fill="none" stroke="black" points="10.5,-700 10.5,-714 42.5,-714 42.5,-700 10.5,-700"/>
<text text-anchor="start" x="13.38" y="-703.4" font-family="Lucida Console" font-size="8.00">OUT.7</text>
<polygon fill="none" stroke="black" points="42.5,-700 42.5,-714 63.5,-714 63.5,-700 42.5,-700"/>
<text text-anchor="start" x="47.75" y="-703.4" font-family="Lucida Console" font-size="8.00">D6</text>
<polygon fill="none" stroke="black" points="10.5,-686 10.5,-700 42.5,-700 42.5,-686 10.5,-686"/>
<text text-anchor="start" x="13.38" y="-689.4" font-family="Lucida Console" font-size="8.00">OUT.4</text>
<polygon fill="none" stroke="black" points="42.5,-686 42.5,-700 63.5,-700 63.5,-686 42.5,-686"/>
<text text-anchor="start" x="47.75" y="-689.4" font-family="Lucida Console" font-size="8.00">D7</text>
<polygon fill="none" stroke="black" points="10.5,-672 10.5,-686 42.5,-686 42.5,-672 10.5,-672"/>
<text text-anchor="start" x="13.38" y="-675.4" font-family="Lucida Console" font-size="8.00">OUT.5</text>
<polygon fill="none" stroke="black" points="42.5,-672 42.5,-686 63.5,-686 63.5,-672 42.5,-672"/>
<text text-anchor="start" x="47.75" y="-675.4" font-family="Lucida Console" font-size="8.00">D8</text>
<polygon fill="none" stroke="black" points="10.5,-658 10.5,-672 42.5,-672 42.5,-658 10.5,-658"/>
<text text-anchor="start" x="13.38" y="-661.4" font-family="Lucida Console" font-size="8.00">OUT.6</text>
<polygon fill="none" stroke="black" points="42.5,-658 42.5,-672 63.5,-672 63.5,-658 42.5,-658"/>
<text text-anchor="start" x="47.75" y="-661.4" font-family="Lucida Console" font-size="8.00">D9</text>
<polygon fill="none" stroke="black" points="10.5,-644 10.5,-658 42.5,-658 42.5,-644 10.5,-644"/>
<text text-anchor="start" x="21.25" y="-647.4" font-family="Lucida Console" font-size="8.00">NC</text>
<polygon fill="none" stroke="black" points="42.5,-644 42.5,-658 63.5,-658 63.5,-644 42.5,-644"/>
<text text-anchor="start" x="45.12" y="-647.4" font-family="Lucida Console" font-size="8.00">D10</text>
<polygon fill="none" stroke="black" points="10.5,-630 10.5,-644 42.5,-644 42.5,-630 10.5,-630"/>
<text text-anchor="start" x="21.25" y="-633.4" font-family="Lucida Console" font-size="8.00">NC</text>
<polygon fill="none" stroke="black" points="42.5,-630 42.5,-644 63.5,-644 63.5,-630 42.5,-630"/>
<text text-anchor="start" x="45.12" y="-633.4" font-family="Lucida Console" font-size="8.00">D11</text>
<polygon fill="none" stroke="black" points="10.5,-616 10.5,-630 42.5,-630 42.5,-616 10.5,-616"/>
<text text-anchor="start" x="21.25" y="-619.4" font-family="Lucida Console" font-size="8.00">NC</text>
<polygon fill="none" stroke="black" points="42.5,-616 42.5,-630 63.5,-630 63.5,-616 42.5,-616"/>
<text text-anchor="start" x="45.12" y="-619.4" font-family="Lucida Console" font-size="8.00">D12</text>
</g>
<!-- FAN.1 -->
<g id="node5" class="node">
<title>FAN.1</title>
<polygon fill="none" stroke="black" points="21,-848 21,-862 53,-862 53,-848 21,-848"/>
<text text-anchor="start" x="23.88" y="-851.4" font-family="Lucida Console" font-size="8.00">FAN.1</text>
<polygon fill="none" stroke="black" points="21,-834 21,-848 42,-848 42,-834 21,-834"/>
<text text-anchor="start" x="23.62" y="-837.4" font-family="Lucida Console" font-size="8.00">12V</text>
<polygon fill="none" stroke="black" points="42,-834 42,-848 53,-848 53,-834 42,-834"/>
<text text-anchor="start" x="44.88" y="-837.4" font-family="Lucida Console" font-size="8.00">1</text>
<polygon fill="none" stroke="black" points="21,-820 21,-834 42,-834 42,-820 21,-820"/>
<text text-anchor="start" x="23.62" y="-823.4" font-family="Lucida Console" font-size="8.00">GND</text>
<polygon fill="none" stroke="black" points="42,-820 42,-834 53,-834 53,-820 42,-820"/>
<text text-anchor="start" x="44.88" y="-823.4" font-family="Lucida Console" font-size="8.00">2</text>
</g>
<!-- FAN.2 -->
<g id="node6" class="node">
<title>FAN.2</title>
<polygon fill="none" stroke="black" points="21,-912 21,-926 53,-926 53,-912 21,-912"/>
<text text-anchor="start" x="23.88" y="-915.4" font-family="Lucida Console" font-size="8.00">FAN.2</text>
<polygon fill="none" stroke="black" points="21,-898 21,-912 42,-912 42,-898 21,-898"/>
<text text-anchor="start" x="23.62" y="-901.4" font-family="Lucida Console" font-size="8.00">12V</text>
<polygon fill="none" stroke="black" points="42,-898 42,-912 53,-912 53,-898 42,-898"/>
<text text-anchor="start" x="44.88" y="-901.4" font-family="Lucida Console" font-size="8.00">1</text>
<polygon fill="none" stroke="black" points="21,-884 21,-898 42,-898 42,-884 21,-884"/>
<text text-anchor="start" x="23.62" y="-887.4" font-family="Lucida Console" font-size="8.00">GND</text>
<polygon fill="none" stroke="black" points="42,-884 42,-898 53,-898 53,-884 42,-884"/>
<text text-anchor="start" x="44.88" y="-887.4" font-family="Lucida Console" font-size="8.00">2</text>
</g>
<!-- WP -->
<g id="node7" class="node">
<title>WP</title>
<polygon fill="none" stroke="black" points="21,-976 21,-990 53,-990 53,-976 21,-976"/>
<text text-anchor="start" x="31.75" y="-979.4" font-family="Lucida Console" font-size="8.00">WP</text>
<polygon fill="none" stroke="black" points="21,-962 21,-976 42,-976 42,-962 21,-962"/>
<text text-anchor="start" x="23.62" y="-965.4" font-family="Lucida Console" font-size="8.00">12V</text>
<polygon fill="none" stroke="black" points="42,-962 42,-976 53,-976 53,-962 42,-962"/>
<text text-anchor="start" x="44.88" y="-965.4" font-family="Lucida Console" font-size="8.00">1</text>
<polygon fill="none" stroke="black" points="21,-948 21,-962 42,-962 42,-948 21,-948"/>
<text text-anchor="start" x="23.62" y="-951.4" font-family="Lucida Console" font-size="8.00">GND</text>
<polygon fill="none" stroke="black" points="42,-948 42,-962 53,-962 53,-948 42,-948"/>
<text text-anchor="start" x="44.88" y="-951.4" font-family="Lucida Console" font-size="8.00">2</text>
</g>
<!-- FP.1 -->
<g id="node8" class="node">
<title>FP.1</title>
<polygon fill="none" stroke="black" points="21,-1040 21,-1054 53,-1054 53,-1040 21,-1040"/>
<text text-anchor="start" x="26.5" y="-1043.4" font-family="Lucida Console" font-size="8.00">FP.1</text>
<polygon fill="none" stroke="black" points="21,-1026 21,-1040 42,-1040 42,-1026 21,-1026"/>
<text text-anchor="start" x="23.62" y="-1029.4" font-family="Lucida Console" font-size="8.00">12V</text>
<polygon fill="none" stroke="black" points="42,-1026 42,-1040 53,-1040 53,-1026 42,-1026"/>
<text text-anchor="start" x="44.88" y="-1029.4" font-family="Lucida Console" font-size="8.00">1</text>
<polygon fill="none" stroke="black" points="21,-1012 21,-1026 42,-1026 42,-1012 21,-1012"/>
<text text-anchor="start" x="23.62" y="-1015.4" font-family="Lucida Console" font-size="8.00">GND</text>
<polygon fill="none" stroke="black" points="42,-1012 42,-1026 53,-1026 53,-1012 42,-1012"/>
<text text-anchor="start" x="44.88" y="-1015.4" font-family="Lucida Console" font-size="8.00">2</text>
</g>
<!-- FP.2 -->
<g id="node9" class="node">
<title>FP.2</title>
<polygon fill="none" stroke="black" points="21,-1104 21,-1118 53,-1118 53,-1104 21,-1104"/>
<text text-anchor="start" x="26.5" y="-1107.4" font-family="Lucida Console" font-size="8.00">FP.2</text>
<polygon fill="none" stroke="black" points="21,-1090 21,-1104 42,-1104 42,-1090 21,-1090"/>
<text text-anchor="start" x="23.62" y="-1093.4" font-family="Lucida Console" font-size="8.00">12V</text>
<polygon fill="none" stroke="black" points="42,-1090 42,-1104 53,-1104 53,-1090 42,-1090"/>
<text text-anchor="start" x="44.88" y="-1093.4" font-family="Lucida Console" font-size="8.00">1</text>
<polygon fill="none" stroke="black" points="21,-1076 21,-1090 42,-1090 42,-1076 21,-1076"/>
<text text-anchor="start" x="23.62" y="-1079.4" font-family="Lucida Console" font-size="8.00">GND</text>
<polygon fill="none" stroke="black" points="42,-1076 42,-1090 53,-1090 53,-1076 42,-1076"/>
<text text-anchor="start" x="44.88" y="-1079.4" font-family="Lucida Console" font-size="8.00">2</text>
</g>
<!-- CS -->
<g id="node10" class="node">
<title>CS</title>
<polygon fill="none" stroke="black" points="21,-1168 21,-1182 53,-1182 53,-1168 21,-1168"/>
<text text-anchor="start" x="31.75" y="-1171.4" font-family="Lucida Console" font-size="8.00">CS</text>
<polygon fill="none" stroke="black" points="21,-1154 21,-1168 42,-1168 42,-1154 21,-1154"/>
<text text-anchor="start" x="23.62" y="-1157.4" font-family="Lucida Console" font-size="8.00">12V</text>
<polygon fill="none" stroke="black" points="42,-1154 42,-1168 53,-1168 53,-1154 42,-1154"/>
<text text-anchor="start" x="44.88" y="-1157.4" font-family="Lucida Console" font-size="8.00">1</text>
<polygon fill="none" stroke="black" points="21,-1140 21,-1154 42,-1154 42,-1140 21,-1140"/>
<text text-anchor="start" x="23.62" y="-1143.4" font-family="Lucida Console" font-size="8.00">GND</text>
<polygon fill="none" stroke="black" points="42,-1140 42,-1154 53,-1154 53,-1140 42,-1140"/>
<text text-anchor="start" x="44.88" y="-1143.4" font-family="Lucida Console" font-size="8.00">2</text>
</g>
<!-- NOS.H -->
<g id="node11" class="node">
<title>NOS.H</title>
<polygon fill="none" stroke="black" points="21,-1232 21,-1246 53,-1246 53,-1232 21,-1232"/>
<text text-anchor="start" x="23.88" y="-1235.4" font-family="Lucida Console" font-size="8.00">NOS.H</text>
<polygon fill="none" stroke="black" points="21,-1218 21,-1232 42,-1232 42,-1218 21,-1218"/>
<text text-anchor="start" x="23.62" y="-1221.4" font-family="Lucida Console" font-size="8.00">12V</text>
<polygon fill="none" stroke="black" points="42,-1218 42,-1232 53,-1232 53,-1218 42,-1218"/>
<text text-anchor="start" x="44.88" y="-1221.4" font-family="Lucida Console" font-size="8.00">1</text>
<polygon fill="none" stroke="black" points="21,-1204 21,-1218 42,-1218 42,-1204 21,-1204"/>
<text text-anchor="start" x="23.62" y="-1207.4" font-family="Lucida Console" font-size="8.00">GND</text>
<polygon fill="none" stroke="black" points="42,-1204 42,-1218 53,-1218 53,-1204 42,-1204"/>
<text text-anchor="start" x="44.88" y="-1207.4" font-family="Lucida Console" font-size="8.00">2</text>
</g>
<!-- REAR.1.1 -->
<g id="node13" class="node">
<title>REAR.1.1</title>
<text text-anchor="start" x="715" y="-394.4" font-family="Lucida Console" font-size="8.00">REAR.1.1</text>
<polygon fill="none" stroke="grey" points="712,-363 712,-405 760,-405 760,-363 712,-363"/>
</g>
<!-- REAR.1&#45;&#45;REAR.1.1 -->
<g id="edge13" class="edge">
<title>REAR.1:0R&#45;&#45;REAR.1.1:0L</title>
<path fill="none" stroke="#000000" d="M408,-372C544.16,-372.2 577.57,-388.2 712,-388"/>
<path fill="none" stroke="#0066ff" d="M408,-374C543.3,-374 576.7,-390 712,-390"/>
<path fill="none" stroke="#000000" d="M408,-376C542.43,-375.8 575.84,-391.8 712,-392"/>
</g>
<!-- REAR.1&#45;&#45;REAR.1.1 -->
<g id="edge14" class="edge">
<title>REAR.1:1R&#45;&#45;REAR.1.1:1L</title>
<path fill="none" stroke="#000000" d="M408,-368C544.16,-368.2 577.57,-384.2 712,-384"/>
<path fill="none" stroke="#0066ff" d="M408,-370C543.3,-370 576.7,-386 712,-386"/>
<path fill="none" stroke="#000000" d="M408,-372C542.43,-371.8 575.84,-387.8 712,-388"/>
</g>
<!-- REAR.1&#45;&#45;REAR.1.1 -->
<g id="edge15" class="edge">
<title>REAR.1:2R&#45;&#45;REAR.1.1:2L</title>
<path fill="none" stroke="#000000" d="M408,-364C544.16,-364.2 577.57,-380.2 712,-380"/>
<path fill="none" stroke="#0066ff" d="M408,-366C543.3,-366 576.7,-382 712,-382"/>
<path fill="none" stroke="#000000" d="M408,-368C542.43,-367.8 575.84,-383.8 712,-384"/>
</g>
<!-- REAR.1&#45;&#45;REAR.1.1 -->
<g id="edge16" class="edge">
<title>REAR.1:3R&#45;&#45;REAR.1.1:3L</title>
<path fill="none" stroke="#000000" d="M408,-360C544.16,-360.2 577.57,-376.2 712,-376"/>
<path fill="none" stroke="#0066ff" d="M408,-362C543.3,-362 576.7,-378 712,-378"/>
<path fill="none" stroke="#000000" d="M408,-364C542.43,-363.8 575.84,-379.8 712,-380"/>
</g>
<!-- REAR.1&#45;&#45;REAR.1.1 -->
<g id="edge17" class="edge">
<title>REAR.1:4R&#45;&#45;REAR.1.1:4L</title>
<path fill="none" stroke="#000000" d="M408,-356C544.16,-356.2 577.57,-372.2 712,-372"/>
<path fill="none" stroke="#0066ff" d="M408,-358C543.3,-358 576.7,-374 712,-374"/>
<path fill="none" stroke="#000000" d="M408,-360C542.43,-359.8 575.84,-375.8 712,-376"/>
</g>
<!-- REAR.1&#45;&#45;REAR.1.1 -->
<g id="edge18" class="edge">
<title>REAR.1:5R&#45;&#45;REAR.1.1:5L</title>
<path fill="none" stroke="#000000" d="M408,-352C544.16,-352.2 577.57,-368.2 712,-368"/>
<path fill="none" stroke="#0066ff" d="M408,-354C543.3,-354 576.7,-370 712,-370"/>
<path fill="none" stroke="#000000" d="M408,-356C542.43,-355.8 575.84,-371.8 712,-372"/>
</g>
<!-- REAR.1&#45;&#45;REAR.1.1 -->
<g id="edge19" class="edge">
<title>REAR.1:6R&#45;&#45;REAR.1.1:6L</title>
<path fill="none" stroke="#000000" d="M408,-348C544.16,-348.2 577.57,-364.2 712,-364"/>
<path fill="none" stroke="#0066ff" d="M408,-350C543.3,-350 576.7,-366 712,-366"/>
<path fill="none" stroke="#000000" d="M408,-352C542.43,-351.8 575.84,-367.8 712,-368"/>
</g>
<!-- REAR.1.2 -->
<g id="node14" class="node">
<title>REAR.1.2</title>
<text text-anchor="start" x="715" y="-330.4" font-family="Lucida Console" font-size="8.00">REAR.1.2</text>
<polygon fill="none" stroke="grey" points="712,-299 712,-341 760,-341 760,-299 712,-299"/>
</g>
<!-- REAR.1&#45;&#45;REAR.1.2 -->
<g id="edge20" class="edge">
<title>REAR.1:7R&#45;&#45;REAR.1.2:0L</title>
<path fill="none" stroke="#000000" d="M408,-344C542.37,-344.29 575.56,-324.29 712,-324"/>
<path fill="none" stroke="#0066ff" d="M408,-346C543.4,-346 576.6,-326 712,-326"/>
<path fill="none" stroke="#000000" d="M408,-348C544.44,-347.71 577.63,-327.71 712,-328"/>
</g>
<!-- REAR.1&#45;&#45;REAR.1.2 -->
<g id="edge21" class="edge">
<title>REAR.1:8R&#45;&#45;REAR.1.2:1L</title>
<path fill="none" stroke="#000000" d="M408,-340C542.37,-340.29 575.56,-320.29 712,-320"/>
<path fill="none" stroke="#0066ff" d="M408,-342C543.4,-342 576.6,-322 712,-322"/>
<path fill="none" stroke="#000000" d="M408,-344C544.44,-343.71 577.63,-323.71 712,-324"/>
</g>
<!-- REAR.1&#45;&#45;REAR.1.2 -->
<g id="edge22" class="edge">
<title>REAR.1:9R&#45;&#45;REAR.1.2:2L</title>
<path fill="none" stroke="#000000" d="M408,-336C542.37,-336.29 575.56,-316.29 712,-316"/>
<path fill="none" stroke="#0066ff" d="M408,-338C543.4,-338 576.6,-318 712,-318"/>
<path fill="none" stroke="#000000" d="M408,-340C544.44,-339.71 577.63,-319.71 712,-320"/>
</g>
<!-- REAR.1&#45;&#45;REAR.1.2 -->
<g id="edge23" class="edge">
<title>REAR.1:10R&#45;&#45;REAR.1.2:3L</title>
<path fill="none" stroke="#000000" d="M408,-332C542.37,-332.29 575.56,-312.29 712,-312"/>
<path fill="none" stroke="#0066ff" d="M408,-334C543.4,-334 576.6,-314 712,-314"/>
<path fill="none" stroke="#000000" d="M408,-336C544.44,-335.71 577.63,-315.71 712,-316"/>
</g>
<!-- REAR.1&#45;&#45;REAR.1.2 -->
<g id="edge24" class="edge">
<title>REAR.1:12R&#45;&#45;REAR.1.2:4L</title>
<path fill="none" stroke="#000000" d="M408,-324C542.43,-324.2 575.84,-308.2 712,-308"/>
<path fill="none" stroke="#0066ff" d="M408,-326C543.3,-326 576.7,-310 712,-310"/>
<path fill="none" stroke="#000000" d="M408,-328C544.16,-327.8 577.57,-311.8 712,-312"/>
</g>
<!-- REAR.1&#45;&#45;REAR.1.2 -->
<g id="edge25" class="edge">
<title>REAR.1:13R&#45;&#45;REAR.1.2:5L</title>
<path fill="none" stroke="#000000" d="M408,-320C542.43,-320.2 575.84,-304.2 712,-304"/>
<path fill="none" stroke="#0066ff" d="M408,-322C543.3,-322 576.7,-306 712,-306"/>
<path fill="none" stroke="#000000" d="M408,-324C544.16,-323.8 577.57,-307.8 712,-308"/>
</g>
<!-- REAR.1&#45;&#45;REAR.1.2 -->
<g id="edge26" class="edge">
<title>REAR.1:14R&#45;&#45;REAR.1.2:6L</title>
<path fill="none" stroke="#000000" d="M408,-316C542.43,-316.2 575.84,-300.2 712,-300"/>
<path fill="none" stroke="#0066ff" d="M408,-318C543.3,-318 576.7,-302 712,-302"/>
<path fill="none" stroke="#000000" d="M408,-320C544.16,-319.8 577.57,-303.8 712,-304"/>
</g>
</g>
</svg>
